<?xml version="1.0" encoding="UTF-8" standalone="no"?>
<svg width="32px" height="32px" viewBox="0 0 32 32" version="1.1" xmlns="http://www.w3.org/2000/svg" xmlns:xlink="http://www.w3.org/1999/xlink" xmlns:sketch="http://www.bohemiancoding.com/sketch/ns">
    <!-- Generator: Sketch 3.4 (15588) - http://www.bohemiancoding.com/sketch -->
    <title>Mask Icon</title>
    <desc>Created with Sketch.</desc>
    <defs></defs>
    <g id="Page-1" stroke="none" stroke-width="1" fill="none" fill-rule="evenodd" sketch:type="MSPage">
        <g id="Untitled-1" sketch:type="MSLayerGroup" fill="#000000">
            <circle id="Oval" sketch:type="MSShapeGroup" cx="16" cy="16" r="12"></circle>
            <path d="M14,2 L16,0 L18,2 L14,2 M14,30 L16,32 L18,30 L14,30 M30,14 L32,16 L30,18 L30,14 M2,14 L0,16 L2,18 L2,14 M21.268,2.876 L24,2.144 L24.732,4.876 L21.268,2.876 M7.268,27.124 L8,29.856 L10.732,29.124 L7.268,27.124 M27.124,7.268 L29.856,8 L29.124,10.732 L27.124,7.268 M2.876,21.268 L2.144,24 L4.876,24.732 L2.876,21.268 M29.124,21.268 L29.856,24 L27.124,24.732 L29.124,21.268 M4.876,7.268 L2.144,8 L2.876,10.732 L4.876,7.268 M24.732,27.124 L24,29.856 L21.268,29.124 L24.732,27.124 M10.732,2.876 L8,2.144 L7.268,4.876 L10.732,2.876" id="Shape" sketch:type="MSShapeGroup"></path>
        </g>
    </g>
</svg>